<svg xmlns="http://www.w3.org/2000/svg" width="43.73" height="32.102" viewBox="0 0 43.73 32.102">
  <g id="Group_30619" data-name="Group 30619" transform="translate(-173.307 -2468.545)">
    <path id="terminal_24dp_E8EAED_FILL0_wght400_GRAD0_opsz24" d="M83.306-773.553a3.183,3.183,0,0,1-2.335-.971A3.183,3.183,0,0,1,80-776.859v-19.835a3.183,3.183,0,0,1,.971-2.335A3.183,3.183,0,0,1,83.306-800h26.447a3.183,3.183,0,0,1,2.335.971,3.183,3.183,0,0,1,.971,2.335v19.835a3.183,3.183,0,0,1-.971,2.335,3.183,3.183,0,0,1-2.335.971Zm0-3.306h26.447v-16.529H83.306Zm5.785-1.653-2.314-2.314,4.256-4.3-4.3-4.3,2.355-2.314,6.612,6.612Z" transform="translate(93.307 3272.545)" fill="#fff"/>
    <g id="dynamic_form_24dp_E8EAED_FILL0_wght400_GRAD0_opsz24" transform="translate(86.828 3272.545)" fill="#fff">
      <path d="M 117.5534133911133 -772.7256469726562 L 113.7326812744141 -773.55322265625 L 113.7326812744141 -786.4295654296875 L 112.4268493652344 -786.4295654296875 L 110.4268493652344 -786.4295654296875 L 110.4268493652344 -788.4295654296875 L 110.4268493652344 -800 L 110.4268493652344 -802 L 112.4268493652344 -802 L 123.9972534179688 -802 L 126.9513092041016 -802 L 125.8542098999023 -799.2572021484375 L 123.6454849243164 -793.7353515625 L 123.9972534179688 -793.7353515625 L 127.1032485961914 -793.7353515625 L 125.8179779052734 -790.9077758789062 L 117.5534133911133 -772.7256469726562 Z" stroke="none"/>
      <path d="M 115.7326812744141 -773.55322265625 L 123.9972534179688 -791.7353515625 L 120.6914215087891 -791.7353515625 L 123.9972534179688 -800 L 112.4268493652344 -800 L 112.4268493652344 -788.4295654296875 L 115.7326812744141 -788.4295654296875 L 115.7326812744141 -773.55322265625 M 119.374153137207 -771.8980102539062 L 111.7326812744141 -773.55322265625 L 111.7326812744141 -784.4295654296875 L 108.4268493652344 -784.4295654296875 L 108.4268493652344 -804 L 129.9053649902344 -804 L 126.5995330810547 -795.7353515625 L 130.2092590332031 -795.7353515625 L 119.374153137207 -771.8980102539062 Z" stroke="none" fill="#ab1e81"/>
    </g>
  </g>
</svg>
