<svg xmlns="http://www.w3.org/2000/svg" width="29.666" height="30" viewBox="0 0 29.666 30">
  <g id="cost_ico" data-name="cost ico" opacity="0.5">
    <path id="barcode_scanner_24dp_E8EAED_FILL0_wght400_GRAD0_opsz24" d="M40-810v-8.333h3.333v5h5V-810Zm21.333,0v-3.333h5v-5h3.333V-810ZM40-831.667V-840h8.333v3.333h-5v5Zm26.333,0v-5h-5V-840h8.333v8.333Z" transform="translate(-40 840)" fill="#8ea0b4"/>
    <path id="request_quote_24dp_E8EAED_FILL0_wght400_GRAD0_opsz24" d="M171.284-850.582h3.784v-1.892h1.892a1.83,1.83,0,0,0,1.348-.544,1.83,1.83,0,0,0,.544-1.348v-5.675a1.83,1.83,0,0,0-.544-1.348,1.83,1.83,0,0,0-1.348-.544h-5.675v-1.892h7.567v-3.784h-3.784V-869.5h-3.784v1.892h-1.892a1.83,1.83,0,0,0-1.348.544,1.83,1.83,0,0,0-.544,1.348v5.675a1.831,1.831,0,0,0,.544,1.348,1.831,1.831,0,0,0,1.348.544h5.675v1.892H167.5v3.784h3.784Z" transform="translate(-158.342 875.041)" fill="#8ea0b4"/>
  </g>
</svg>
