<svg xmlns="http://www.w3.org/2000/svg" width="29.666" height="30" viewBox="0 0 29.666 30">
  <g id="fast_results" data-name="fast results" opacity="0.5">
    <path id="barcode_scanner_24dp_E8EAED_FILL0_wght400_GRAD0_opsz24" d="M40-810v-8.333h3.333v5h5V-810Zm21.333,0v-3.333h5v-5h3.333V-810ZM40-831.667V-840h8.333v3.333h-5v5Zm26.333,0v-5h-5V-840h8.333v8.333Z" transform="translate(-40 840)" fill="#8ea0b4"/>
    <path id="hourglass_bottom_24dp_E8EAED_FILL0_wght400_GRAD0_opsz24" d="M166.928-872.206a3.336,3.336,0,0,0,2.447-1.018,3.335,3.335,0,0,0,1.018-2.446v-2.6h-6.928v2.6a3.335,3.335,0,0,0,1.018,2.446A3.336,3.336,0,0,0,166.928-872.206ZM160-862.68v-1.732h1.732v-2.6a5.194,5.194,0,0,1,.617-2.479,4.825,4.825,0,0,1,1.721-1.851,4.826,4.826,0,0,1-1.721-1.851,5.194,5.194,0,0,1-.617-2.479v-2.6H160V-880h13.856v1.732h-1.732v2.6a5.194,5.194,0,0,1-.617,2.479,4.826,4.826,0,0,1-1.721,1.851,4.826,4.826,0,0,1,1.721,1.851,5.194,5.194,0,0,1,.617,2.479v2.6h1.732v1.732Z" transform="translate(-152.095 886.34)" fill="#8ea0b4"/>
  </g>
</svg>
