<svg id="inbox_logo" data-name="inbox logo" xmlns="http://www.w3.org/2000/svg" width="254.401" height="92.597" viewBox="0 0 254.401 92.597">
  <rect id="Rectangle_3995" data-name="Rectangle 3995" width="254.401" height="92.597" rx="9" fill="#26323a"/>
  <g id="Group_30794" data-name="Group 30794" transform="translate(-123 -44)">
    <path id="Path_51040" data-name="Path 51040" d="M-12117.832,13071.105s-27.657-13.412-3.324-23.471c8.9-3.25,23.383-1.016,23.383-1.016a19.963,19.963,0,0,0,17.568-7.214c7.121-8.84,7.6-11.685,14.6-9.653s26.707,19.611,24.333,42.371-66.472,3.453-70.981,1.625A29.752,29.752,0,0,1-12117.832,13071.105Z" transform="translate(12329.735 -12966.127)" fill="#1da6ae"/>
    <g id="Group_30591" data-name="Group 30591" transform="translate(164 68.17)">
      <text id="Inbox" transform="translate(24.999 37.83)" fill="#fff" font-size="39" font-family="Montserrat-Medium, Montserrat" font-weight="500" letter-spacing="-0.03em"><tspan x="0" y="0">Inbox</tspan></text>
      <text id="_" data-name="@" transform="translate(-0.001 33.83)" fill="#fff" font-size="23" font-family="Montserrat-Light, Montserrat" font-weight="300" letter-spacing="-0.03em"><tspan x="0" y="0">@</tspan></text>
      <text id="app" transform="translate(137.999 37.83)" fill="#fff" font-size="18" font-family="Montserrat-Light, Montserrat" font-weight="300" letter-spacing="-0.03em"><tspan x="0" y="0">app</tspan></text>
    </g>
  </g>
</svg>
