<svg id="Invoice_logo" data-name="Invoice logo" xmlns="http://www.w3.org/2000/svg" xmlns:xlink="http://www.w3.org/1999/xlink" width="254.401" height="92.597" viewBox="0 0 254.401 92.597">
  <defs>
    <clipPath id="clip-path">
      <rect id="Rectangle_3991" data-name="Rectangle 3991" width="141" height="52" transform="translate(0 1.32)" fill="#fff"/>
    </clipPath>
  </defs>
  <rect id="Rectangle_3993" data-name="Rectangle 3993" width="254.401" height="92.597" rx="9" fill="#26323a"/>
  <g id="logo_white" transform="translate(57 18.68)" clip-path="url(#clip-path)">
    <path id="Path_51096" data-name="Path 51096" d="M122.692,41.353a14.408,14.408,0,1,1,9.448-25.3,16.724,16.724,0,0,0-3.322,6.165,7.722,7.722,0,1,0,0,9.463,16.716,16.716,0,0,0,3.322,6.166,14.41,14.41,0,0,1-9.449,3.51Z" transform="translate(-18.116 -1.718)" fill="#fff"/>
    <path id="Path_51097" data-name="Path 51097" d="M80.364,41.353a14.434,14.434,0,1,1,5.622-1.132A14.407,14.407,0,0,1,80.364,41.353Zm0-22.135a7.747,7.747,0,1,0,5.478,2.268A7.777,7.777,0,0,0,80.364,19.218Z" transform="translate(-11.032 -1.718)" fill="#fff"/>
    <path id="Path_51098" data-name="Path 51098" d="M17.778,12.541H26.77L42.614,41.354H33.62Z" transform="translate(-2.975 -1.719)" fill="#fff"/>
    <path id="Path_51099" data-name="Path 51099" d="M50.642,12.577,62.665,41.36H53.672l-3.03-8.507Z" transform="translate(-8.476 -1.726)" fill="#fff"/>
    <path id="Path_51100" data-name="Path 51100" d="M45.721,12.541H36.729V41.354h8.992Z" transform="translate(-6.147 -1.719)" fill="#fff"/>
    <path id="Path_51101" data-name="Path 51101" d="M149.48,41.164a14.3,14.3,0,1,1,14.1-11.64H142.107a7.852,7.852,0,0,0,14.278,1.036l5.719,3.1a13.9,13.9,0,0,1-.727,1.194,14.336,14.336,0,0,1-11.9,6.31Zm0-22.135a7.873,7.873,0,0,0-7.373,5.152h14.744a7.873,7.873,0,0,0-7.371-5.152Z" transform="translate(-22.615 -1.72)" fill="#fff"/>
    <path id="Path_51102" data-name="Path 51102" d="M75.094,12.541H66.075L54.435,41.354h9.019Z" transform="translate(-9.111 -1.719)" fill="#fff"/>
    <path id="Path_51103" data-name="Path 51103" d="M77.391,12.54H81.6v2.672H77.391Z" transform="translate(-12.953 -1.719)" fill="#fff"/>
    <path id="Path_51104" data-name="Path 51104" d="M12.439,12.541H3.447V41.354h8.992Z" transform="translate(-0.577 -1.719)" fill="#fff"/>
    <path id="Path_51105" data-name="Path 51105" d="M2.87,15.356a2.868,2.868,0,0,0-.86-1.989A2.889,2.889,0,0,0,0,12.541H2.871v2.815Z" transform="translate(0 -1.719)" fill="#fff"/>
    <path id="Path_51106" data-name="Path 51106" d="M2.87,43.766a2.868,2.868,0,0,1-.86,1.989A2.889,2.889,0,0,1,0,46.581H2.871V43.766Z" transform="translate(0 -6.945)" fill="#fff"/>
    <path id="Path_51107" data-name="Path 51107" d="M108.139,12.541H99.147V41.354h8.992Z" transform="translate(-16.594 -1.719)" fill="#fff"/>
    <path id="Path_51108" data-name="Path 51108" d="M98.57,15.356a2.879,2.879,0,0,0-2.87-2.815h2.872v2.815Z" transform="translate(-16.017 -1.719)" fill="#fff"/>
    <path id="Path_51109" data-name="Path 51109" d="M98.57,43.766a2.879,2.879,0,0,1-2.87,2.815h2.871V43.766Z" transform="translate(-16.017 -6.945)" fill="#fff"/>
    <path id="Path_51110" data-name="Path 51110" d="M26.846,12.541H17.854V41.354h8.992Z" transform="translate(-2.988 -1.719)" fill="#fff"/>
    <path id="Path_51111" data-name="Path 51111" d="M17.277,43.766a2.879,2.879,0,0,1-2.87,2.815h2.872V43.766Z" transform="translate(-2.411 -6.945)" fill="#fff"/>
    <path id="Path_51112" data-name="Path 51112" d="M112.963,60.787a5.224,5.224,0,0,0,4.238-1.852l-1.774-1.6a2.917,2.917,0,0,1-2.324,1.151,2.806,2.806,0,0,1,0-5.612,2.916,2.916,0,0,1,2.324,1.151l1.774-1.6a5.221,5.221,0,0,0-4.238-1.852,5.116,5.116,0,1,0,0,10.213Zm12.266-.2h2.9l-4.366-9.822h-2.746l-4.351,9.82h2.845l.773-1.907h4.168ZM121.1,56.633l1.267-3.143,1.268,3.143Zm7.392,3.956h4.662c3.267,0,5.506-1.894,5.506-4.91s-2.239-4.91-5.506-4.91H128.5Zm2.788-2.217V52.985h1.76a2.7,2.7,0,1,1,0,5.387Zm8.421,2.217h4.659c3.267,0,5.506-1.894,5.506-4.91s-2.237-4.91-5.506-4.91H139.7Zm2.788-2.217V52.985h1.761a2.7,2.7,0,1,1,0,5.387Zm17.053-7.6h-2.7l-2.34,3.9-2.336-3.9h-2.945l3.76,6.257v3.564h2.788V57.068Z" transform="translate(-17.999 -8.085)" fill="#fff"/>
    <path id="Path_51113" data-name="Path 51113" d="M7.706.838A4.561,4.561,0,0,1,8.6,9.875a4.562,4.562,0,0,1-4.131-7.7A4.588,4.588,0,0,1,7.706.838Z" transform="translate(-0.523 0.239)" fill="#fff"/>
    <path id="Path_51114" data-name="Path 51114" d="M103.682.838a4.578,4.578,0,0,1,4.231,2.816,4.55,4.55,0,0,1-.993,4.972A4.571,4.571,0,1,1,103.682.838Z" transform="translate(-16.587 0.239)" fill="#fff"/>
  </g>
</svg>
