<svg xmlns="http://www.w3.org/2000/svg" width="187.727" height="58.8" viewBox="0 0 187.727 58.8">
  <g id="deligo_SVG" data-name="deligo SVG" transform="translate(-1.54 0.088)">
    <g id="Group_17689" data-name="Group 17689" transform="translate(131.41 -0.471)">
      <path id="Path_32935" data-name="Path 32935" d="M204.117,4.368v20.35a2.346,2.346,0,0,1-2.348,2.348H157.047L149.26,35.11V4.368a2.352,2.352,0,0,1,2.348-2.348h50.162A2.352,2.352,0,0,1,204.117,4.368Z" transform="translate(-146.26 -1.637)" fill="#1da6ae"/>
      <text id="beyond_technology" data-name="beyond
technology" transform="translate(10.476 10)" fill="#fff" font-size="8" font-family="SegoeUI, Segoe UI"><tspan x="0" y="0">beyond</tspan><tspan x="0" y="10">technology</tspan></text>
    </g>
    <g id="Group_17690" data-name="Group 17690" transform="translate(1.54 5.29)">
      <path id="Path_32936" data-name="Path 32936" d="M97.141,51.6h1.63c.044.31.08.62.133.921.629,3.207,2.773,4.935,5.776,5.723a15.714,15.714,0,0,0,9.3-.292,8.788,8.788,0,0,0,6.264-7.823c.266-2.56.159-5.156.221-7.743,0-.062-.044-.115-.106-.257-.292.523-.532.992-.815,1.444a11.371,11.371,0,0,1-8.966,5.493c-5.218.54-10.206-1.4-12.74-6.7a18.86,18.86,0,0,1-1.506-4.678A21.612,21.612,0,0,1,97.38,25.442c2.3-5.67,7.353-8.115,12.917-7.61a15.7,15.7,0,0,1,4.066.948,10.033,10.033,0,0,1,5.652,5.333,1.694,1.694,0,0,0,.425.62V18.54h1.745v.788q0,14.06-.018,28.128a21.892,21.892,0,0,1-.381,4.173,9.594,9.594,0,0,1-5.484,7,16.988,16.988,0,0,1-13.333.788,8.059,8.059,0,0,1-5.776-7.141A4.943,4.943,0,0,1,97.141,51.6Zm23.451-18.126c-.2-1.6-.3-3.234-.638-4.811a11.35,11.35,0,0,0-5.032-7.752,10.916,10.916,0,0,0-16.071,5.635,19.789,19.789,0,0,0-.177,13.236c1.488,4.563,4.607,7.282,9.5,7.681a10.334,10.334,0,0,0,10.525-5.7A19.555,19.555,0,0,0,120.592,33.477Z" transform="translate(-12.304 -6.997)" fill="#fff"/>
      <path id="Path_32937" data-name="Path 32937" d="M27.79,47H26.151V40.538a4.76,4.76,0,0,0-.31.425c-2.224,4.873-6.157,6.963-11.358,6.848-6.1-.133-10.348-3.42-12.013-9.329A21.8,21.8,0,0,1,2.9,24.574a11.943,11.943,0,0,1,12.111-8.106c4.9.115,8.664,2.109,10.853,6.671a2.907,2.907,0,0,0,.221.3V5.73h1.7ZM26.125,32.166a18,18,0,0,0-1.5-7.832A10.09,10.09,0,0,0,15.1,18.062c-4.536-.1-8.044,1.763-9.967,5.9A18.851,18.851,0,0,0,5,40.113c1.843,4.164,5.3,6.148,9.834,6.131a10.153,10.153,0,0,0,9.834-6.379A17.69,17.69,0,0,0,26.125,32.166Z" transform="translate(-1.54 -5.624)" fill="#fff"/>
      <path id="Path_32938" data-name="Path 32938" d="M63.313,39.671a11.813,11.813,0,0,1-9.816,9.32c-4.439.585-8.31-.461-11.278-3.987A14.405,14.405,0,0,1,39.144,38a22.7,22.7,0,0,1,.966-12.412A12.32,12.32,0,0,1,59.14,20.3a12.191,12.191,0,0,1,4.35,7.654c.337,1.8.416,3.641.62,5.546-.514.027-.824.053-1.125.053H41.51c-.975,0-.966,0-.939.966a16.49,16.49,0,0,0,1.683,7.265c2.109,4.013,5.431,6.033,9.967,5.723a9.982,9.982,0,0,0,9.054-6.715C61.8,39.485,61.78,39.476,63.313,39.671Zm-1.293-7.743a14.465,14.465,0,0,0-2.029-8.044,8.935,8.935,0,0,0-4.368-3.712,10.215,10.215,0,0,0-10.215,1.267c-3.446,2.578-4.465,6.361-4.8,10.481C47.791,31.928,54.887,31.928,62.019,31.928Z" transform="translate(-5.781 -6.989)" fill="#fff"/>
      <path id="Path_32939" data-name="Path 32939" d="M157.225,28.772a11.714,11.714,0,0,1,1.382.018.594.594,0,0,1,.425.363c.78,5,.594,9.878-2.1,14.352a11.362,11.362,0,0,1-9.152,5.581c-4.288.4-8.115-.647-11.048-4.013a14.578,14.578,0,0,1-3.251-7.4,22.8,22.8,0,0,1,.753-11.287A11.983,11.983,0,0,1,146.4,17.84c1.037.018,1.072.044,1.01,1.09-.009.142-.044.283-.071.461a27.6,27.6,0,0,0-2.862.159,9.826,9.826,0,0,0-8.195,6.494,19.226,19.226,0,0,0,.5,15.956c2.188,4.43,6.52,6.051,10.915,5.475,5.068-.664,8.257-3.836,9.462-9.169a22.708,22.708,0,0,0,.2-8.576C157.3,29.446,157.278,29.153,157.225,28.772Z" transform="translate(-16.548 -7.005)" fill="#fff"/>
      <path id="Path_32940" data-name="Path 32940" d="M76.458,46.993H74.81V5.62h1.648Z" transform="translate(-9.898 -5.611)" fill="#fff"/>
      <path id="Path_32941" data-name="Path 32941" d="M86.27,18.63h1.648V48.451H86.27Z" transform="translate(-11.205 -7.095)" fill="#fff"/>
      <path id="Path_32942" data-name="Path 32942" d="M86.26,5.61h1.674v4.713H86.26Z" transform="translate(-11.204 -5.61)" fill="#fff"/>
    </g>
  </g>
</svg>
