<svg xmlns="http://www.w3.org/2000/svg" width="29.667" height="29.667" viewBox="0 0 29.667 29.667">
  <path id="radio_button_checked_24dp_E8EAED_FILL0_wght400_GRAD0_opsz24" d="M94.833-857.75a7.148,7.148,0,0,0,5.247-2.169,7.148,7.148,0,0,0,2.169-5.247,7.148,7.148,0,0,0-2.169-5.247,7.148,7.148,0,0,0-5.247-2.169,7.148,7.148,0,0,0-5.247,2.169,7.148,7.148,0,0,0-2.169,5.247,7.148,7.148,0,0,0,2.169,5.247A7.148,7.148,0,0,0,94.833-857.75Zm0,7.417a14.444,14.444,0,0,1-5.785-1.168,14.979,14.979,0,0,1-4.71-3.171,14.979,14.979,0,0,1-3.171-4.71A14.445,14.445,0,0,1,80-865.167a14.445,14.445,0,0,1,1.168-5.785,14.979,14.979,0,0,1,3.171-4.71,14.979,14.979,0,0,1,4.71-3.171A14.444,14.444,0,0,1,94.833-880a14.444,14.444,0,0,1,5.785,1.168,14.979,14.979,0,0,1,4.71,3.171,14.979,14.979,0,0,1,3.171,4.71,14.445,14.445,0,0,1,1.168,5.785,14.445,14.445,0,0,1-1.168,5.785,14.979,14.979,0,0,1-3.171,4.71,14.979,14.979,0,0,1-4.71,3.171A14.444,14.444,0,0,1,94.833-850.333Zm0-2.967a11.453,11.453,0,0,0,8.418-3.449,11.453,11.453,0,0,0,3.449-8.418,11.453,11.453,0,0,0-3.449-8.418,11.453,11.453,0,0,0-8.418-3.449,11.453,11.453,0,0,0-8.418,3.449,11.453,11.453,0,0,0-3.449,8.418,11.453,11.453,0,0,0,3.449,8.418A11.453,11.453,0,0,0,94.833-853.3ZM94.833-865.167Z" transform="translate(-80 880)" fill="#fab835"/>
</svg>
